<svg xmlns="http://www.w3.org/2000/svg" viewBox="0 0 165.22 24.55" width="686" height="102"><defs><style>.a{fill:none;stroke:#fff;stroke-linecap:round;stroke-linejoin:round;stroke-width:1.88px;}.b{fill:#f39800;}.c{fill:#005bac;}.d{fill:#231815;}.e{fill:#00a73c;}</style></defs><path class="a" d="M.94.94V8.46H8.47V23.51h.3a8,8,0,0,0,3.62-1.85c3-2.64,4.19-6.09,3.54-10.54a14.3,14.3,0,0,1,2-10.18Z"/><path class="a" d="M44.73,23.49,48.91,8.58h9.71c4.71,0,7.89.17,7.5,3.55-.28,2.41-1.9,3.53-4.07,3.8a3.27,3.27,0,0,1,2.27,3.89c-.72,3.38-4.24,3.67-9.67,3.67ZM53,17.58,52.29,20h2.47c1.39,0,2.5-.22,2.76-1.21.3-1.15-1-1.23-2.8-1.23Zm1.61-5.16-.74,2.39h1.92c1.37,0,2.65-.25,2.89-1.12.33-1.16-1.43-1.25-2.58-1.27Z"/><path class="a" d="M64.68,23.37l2.46-9.45,10.37,0L77,16.75l-6.26,0-.23,1,6,0-.46,2H70L69.65,21h6.06l-.52,2.41Z"/><path class="a" d="M78.29,13.8H88.4l-.8,3.12h-3l-1.9,6.44h-4l1.69-6.51-2.9.07Z"/><path class="a" d="M101.21,13.64h4.23l-1.66,5.81c-.27,1-.17,1.66.79,1.66s1.29-.61,1.59-1.66l1.66-5.81h4.45l-1.57,5.49c-.89,3.11-2.31,4.5-6.81,4.48-4.15,0-5.21-1.15-4.25-4.49Z"/><path class="a" d="M147.51,19.54,149.66,14h5l-5.25,9.57h-4.66V17.76l-2.26,5.76h-5.29L137.05,14h4.37l-.2,5.9h0L143.57,14h4.15Z"/><polygon class="a" points="124.86 13.71 119.61 13.71 116.23 18.07 117.41 13.66 113.27 13.66 110.65 23.44 114.79 23.44 115.98 18.99 117.52 23.49 122.18 23.49 120.19 18.93 124.86 13.71"/><path class="a" d="M128.32,13.91l-6.08,9.58H127l.8-1.27h3.76v1.22H136V13.91Zm1.13,5.73,2.12-3.33v3.33Z"/><path class="a" d="M156.63,13.91l-6.08,9.58h4.77l.8-1.27h3.76v1.22h4.4V13.91Zm1.13,5.73,2.12-3.33v3.33Z"/><path class="a" d="M86.63,23.08l.79-2.33a24,24,0,0,0,4,.46c1,0,1.83-.1,1.88-.71s-.47-.76-1.57-.66a4.33,4.33,0,0,1-3.15-.66c-.73-.51-.68-1.82-.36-2.63A3.82,3.82,0,0,1,90.72,14c2-.55,8.18-.3,9.34-.2l-.79,2.94a20.69,20.69,0,0,0-4.82-.26c-1.1.12-1.33.23-1.47.61-.07.19.06.62,1.27.62s3.24,0,3.92,1a3.32,3.32,0,0,1-2.36,4.57A23.8,23.8,0,0,1,86.63,23.08Z"/><path class="a" d="M51.88,1.31l-.42,1.57a9.66,9.66,0,0,1,2.71,1.33l-.52.71a9.3,9.3,0,0,0-2.39-1.31l-.83,3.11H49.7l1.44-5.41Z"/><path class="a" d="M60.31,3.57l-.2.75H54.66l.2-.75Z"/><path class="a" d="M63,3.48a3.62,3.62,0,0,1,1.19.87,5.24,5.24,0,0,0,1.16-1.6H63.22a7,7,0,0,1-2,1.48l-.32-.52a6,6,0,0,0,2.7-2.39l.7.14a6.1,6.1,0,0,1-.5.65h2.62a7.52,7.52,0,0,1-5.54,4.61l-.24-.6a6.65,6.65,0,0,0,2.95-1.25A4.07,4.07,0,0,0,62.41,4Z"/><path class="a" d="M68.49,3.12c-.69,2.57-1.77,3.36-2.15,3.63L66,6.22c.34-.22,1.21-.78,1.79-3l.46-1.71h.71Zm1,2.62c1.5-.33,2.28-2.06,2.42-2.37l.56.27a4.49,4.49,0,0,1-3.89,2.91l1.39-5.18h.69Z"/><path class="a" d="M74.64,4a.87.87,0,0,1-.81.64A.47.47,0,0,1,73.37,4a.89.89,0,0,1,.81-.63A.46.46,0,0,1,74.64,4Z"/><path class="a" d="M75.72,5.71c2.35-.12,3.65-1,5.07-3.33l.59.29c-1.31,2.1-2.75,3.54-5.68,3.77Zm1.8-1.53A6.32,6.32,0,0,0,76,3.48l.48-.62A5.42,5.42,0,0,1,78,3.54Zm.89-1.37a6.45,6.45,0,0,0-1.6-.7l.48-.61a6.06,6.06,0,0,1,1.6.68Z"/><path class="a" d="M80.9,6a9.36,9.36,0,0,0,4.53-3.68h-3.2l.18-.67h4.13a9.33,9.33,0,0,1-1.86,2.54A21.13,21.13,0,0,1,86.27,6l-.73.59a12,12,0,0,0-1.42-1.88,9.18,9.18,0,0,1-3,1.85Z"/><path class="a" d="M92.69,3.17l-.17.64h-2a3.74,3.74,0,0,1-3.3,2.87L87,6.1a2.88,2.88,0,0,0,2.76-2.29H87.39l.17-.64ZM92.61,1.6l-.17.63H88.32l.17-.63Z"/><path class="a" d="M97.1,3.56a9.63,9.63,0,0,1,.79,2.8l-.8.31a5,5,0,0,0-.08-.6c-2.42.22-2.69.25-4.44.33l.11-.73c.14,0,.45,0,.61,0a35.81,35.81,0,0,0,2.43-4.27l.77.1C95.69,3,94.64,4.73,94,5.64c1,0,1.16,0,2.87-.14a6.25,6.25,0,0,0-.5-1.66Z"/><path class="a" d="M100.9,4a.88.88,0,0,1-.81.64A.47.47,0,0,1,99.62,4a.9.9,0,0,1,.81-.63A.47.47,0,0,1,100.9,4Z"/><path class="a" d="M102.08,6c1.34-.32,3.35-.91,4.74-4.31l.75.16c-1.18,2.38-2.37,4-5.27,4.75Zm1.09-2.14a5.94,5.94,0,0,0-.61-1.66l.7-.35A4.72,4.72,0,0,1,104,3.41Z"/><path class="a" d="M108.31,4.9h-.71l.89-3.32h.71Zm3.4-1.1c-.65,2.45-2.19,2.73-4,2.92l0-.68a5.69,5.69,0,0,0,2.13-.43,2.29,2.29,0,0,0,1.15-1.49l.71-2.65h.72Z"/><path class="a" d="M116.4,2.87c-.47,1.41-.7,2.05-1,2.82h1.07l-.16.6H112l.16-.6h2.57c.36-.79.78-2.07.81-2.15h-2.27l.18-.67Z"/><path class="a" d="M123.15,3.57l-.2.75H117.5l.2-.75Z"/><path class="a" d="M123.56,5.71c2.35-.12,3.65-1,5.07-3.33l.59.29c-1.31,2.1-2.75,3.54-5.68,3.77Zm1.8-1.53a6.39,6.39,0,0,0-1.54-.7l.49-.62a5.42,5.42,0,0,1,1.54.68Zm.88-1.37a6.43,6.43,0,0,0-1.59-.7l.48-.61a5.91,5.91,0,0,1,1.59.68Z"/><path class="a" d="M133.23,2.76l-1,3.65H128.8L129,5.8h2.8l.25-1h-2.67l.16-.61h2.68l.23-.87h-2.73l.16-.6Z"/><path class="a" d="M133.37,5.73c2.34-.16,3.91-1.05,5.46-3.65l.61.31c-1.6,2.62-3.24,3.78-6.05,4.11Zm2.47-2.53a4.89,4.89,0,0,0-1.61-.9l.49-.6a5,5,0,0,1,1.68.84Z"/><path class="a" d="M141.47,5.93a2.59,2.59,0,0,0,2.76-2,1.2,1.2,0,0,0-1.17-1.69,10.38,10.38,0,0,1-1.46,3,2.06,2.06,0,0,1-1.41.86c-.81,0-1-.92-.74-1.77a3.7,3.7,0,0,1,3.6-2.72c2,0,2.19,1.39,1.93,2.4a3.48,3.48,0,0,1-3.51,2.58ZM140.1,4.41c-.18.66,0,1,.29,1,.82,0,1.68-2.29,2-3.15A2.9,2.9,0,0,0,140.1,4.41Z"/><path class="a" d="M26.45,1.76c.23-.28.47-.55.74-.82h-9.3c-.17.27-.33.54-.48.82Z"/><path class="a" d="M16.82,3h8.73a8.76,8.76,0,0,1,.58-.82H17.2C17.06,2.42,16.93,2.7,16.82,3Z"/><path class="a" d="M16.37,4.18h8.5c.13-.27.28-.55.44-.82H16.65C16.55,3.63,16.45,3.91,16.37,4.18Z"/><path class="a" d="M16,5.39h8.35c.09-.27.19-.55.3-.82H16.25C16.17,4.84,16.1,5.12,16,5.39Z"/><path class="a" d="M15.84,6.6h8.25a8.09,8.09,0,0,1,.19-.82H16C15.92,6.05,15.87,6.33,15.84,6.6Z"/><path class="a" d="M15.74,7.81H24c0-.27,0-.55.07-.82H15.8C15.77,7.26,15.75,7.54,15.74,7.81Z"/><path class="a" d="M15.74,9H24c0-.27,0-.55,0-.82H15.73C15.73,8.47,15.73,8.75,15.74,9Z"/><path class="a" d="M15.82,10.23H24.1l0-.22c0-.2-.05-.4-.07-.6H15.75C15.77,9.69,15.79,10,15.82,10.23Z"/><path class="a" d="M15.93,11.12a3.11,3.11,0,0,0,0,.32h8.26c0-.27-.05-.54-.09-.82H15.86C15.88,10.79,15.9,11,15.93,11.12Z"/><path class="a" d="M16.08,12.66H24.3c0-.28,0-.55,0-.83H16C16,12.11,16.07,12.39,16.08,12.66Z"/><path class="a" d="M16.09,13.87H24.3c0-.27,0-.55,0-.83H16.09C16.1,13.32,16.1,13.6,16.09,13.87Z"/><path class="a" d="M16,15.08h8.23c0-.27.05-.55.06-.83H16.08C16.06,14.53,16,14.81,16,15.08Z"/><path class="a" d="M15.76,16.29h8.31l.12-.82H15.93A8,8,0,0,1,15.76,16.29Z"/><path class="a" d="M15.38,17.5h8.43c.07-.27.13-.54.19-.82H15.66C15.58,17,15.48,17.23,15.38,17.5Z"/><path class="a" d="M14.81,18.71h8.63c.1-.27.19-.54.27-.82H15.22A9,9,0,0,1,14.81,18.71Z"/><path class="a" d="M14,19.92H23c.12-.27.24-.54.35-.82H14.59C14.41,19.38,14.23,19.65,14,19.92Z"/><path class="a" d="M13,21.13h9.35c.16-.27.31-.54.45-.82h-9C13.48,20.59,13.23,20.86,13,21.13Z"/><path class="a" d="M12.39,21.66a8.26,8.26,0,0,1-.88.68h10c.2-.27.39-.54.57-.82H12.54Z"/><path class="a" d="M8.77,23.51H20.53c.24-.25.46-.51.68-.78H10.87A9.48,9.48,0,0,1,8.77,23.51Z"/><path class="a" d="M38.25.94H27.19c-.13.13-.26.27-.38.41h10.4C37.53,1.2,37.88,1.07,38.25.94Z"/><path class="a" d="M35.76,2.15H26.13l-.31.41h9.37C35.37,2.42,35.56,2.28,35.76,2.15Z"/><path class="a" d="M34.25,3.36H25.31c-.08.14-.16.27-.23.41h8.74C34,3.63,34.1,3.5,34.25,3.36Z"/><path class="a" d="M33.08,4.57H24.69c-.05.14-.11.27-.16.41h8.22Z"/><path class="a" d="M32.22,5.78H24.28c0,.14-.07.27-.1.41H32A3.32,3.32,0,0,1,32.22,5.78Z"/><path class="a" d="M31.68,7H24c0,.14,0,.27,0,.41h7.59A3.48,3.48,0,0,1,31.68,7Z"/><path class="a" d="M31.5,8.2H23.94c0,.14,0,.28,0,.41h7.56C31.5,8.49,31.5,8.35,31.5,8.2Z"/><path class="a" d="M31.62,9.41H24c0,.14,0,.28.05.41h7.62C31.65,9.69,31.63,9.55,31.62,9.41Z"/><path class="a" d="M31.75,10.62H24.14l.06.41h7.59C31.78,10.9,31.77,10.76,31.75,10.62Z"/><path class="a" d="M31.84,11.83H24.26l0,.41h7.56C31.85,12.11,31.85,12,31.84,11.83Z"/><path class="a" d="M31.87,13H24.31c0,.14,0,.28,0,.42h7.55C31.86,13.32,31.87,13.18,31.87,13Z"/><path class="a" d="M31.83,14.25H24.29l0,.41h7.55C31.82,14.53,31.83,14.39,31.83,14.25Z"/><path class="a" d="M31.74,15.47H24.19l-.06.41h7.56C31.71,15.74,31.73,15.6,31.74,15.47Z"/><path class="a" d="M31.57,16.68H24l-.09.41H31.5C31.52,17,31.55,16.81,31.57,16.68Z"/><path class="a" d="M31.33,17.89H23.71c-.05.14-.09.27-.13.41h7.65C31.27,18.16,31.3,18,31.33,17.89Z"/><path class="a" d="M31,19.1H23.3c-.05.14-.11.27-.17.41h7.75C30.92,19.37,31,19.23,31,19.1Z"/><path class="a" d="M30.59,20.31H22.76l-.21.41h7.88C30.48,20.58,30.54,20.45,30.59,20.31Z"/><path class="a" d="M30.08,21.52h-8l-.28.41h8.08Z"/><path class="a" d="M29.46,22.73H21.21l-.35.41h8.36Z"/><path class="b" d="M.94.94V8.46H8.47V23.51h.3a8,8,0,0,0,3.62-1.85c3-2.64,4.19-6.09,3.54-10.54a14.3,14.3,0,0,1,2-10.18Z"/><path class="c" d="M44.73,23.49,48.91,8.58h9.71c4.71,0,7.89.17,7.5,3.55-.28,2.41-1.9,3.53-4.07,3.8a3.27,3.27,0,0,1,2.27,3.89c-.72,3.38-4.24,3.67-9.67,3.67ZM53,17.58,52.29,20h2.47c1.39,0,2.5-.22,2.76-1.21.3-1.15-1-1.23-2.8-1.23Zm1.61-5.16-.74,2.39h1.92c1.37,0,2.65-.25,2.89-1.12.33-1.16-1.43-1.25-2.58-1.27Z"/><path class="c" d="M64.68,23.37l2.46-9.45,10.37,0L77,16.75l-6.26,0-.23,1,6,0-.46,2H70L69.65,21h6.06l-.52,2.41Z"/><path class="c" d="M78.29,13.8H88.4l-.8,3.12h-3l-1.9,6.44h-4l1.69-6.51-2.9.07Z"/><path class="c" d="M101.21,13.64h4.23l-1.66,5.81c-.27,1-.17,1.66.79,1.66s1.29-.61,1.59-1.66l1.66-5.81h4.45l-1.57,5.49c-.89,3.11-2.31,4.5-6.81,4.48-4.15,0-5.21-1.15-4.25-4.49Z"/><path class="c" d="M147.51,19.54,149.66,14h5l-5.25,9.57h-4.66V17.76l-2.26,5.76h-5.29L137.05,14h4.37l-.2,5.9h0L143.57,14h4.15Z"/><polygon class="c" points="124.86 13.71 119.61 13.71 116.23 18.07 117.41 13.66 113.27 13.66 110.65 23.44 114.79 23.44 115.98 18.99 117.52 23.49 122.18 23.49 120.19 18.93 124.86 13.71"/><path class="c" d="M128.32,13.91l-6.08,9.58H127l.8-1.27h3.76v1.22H136V13.91Zm1.13,5.73,2.12-3.33v3.33Z"/><path class="c" d="M156.63,13.91l-6.08,9.58h4.77l.8-1.27h3.76v1.22h4.4V13.91Zm1.13,5.73,2.12-3.33v3.33Z"/><path class="c" d="M86.63,23.08l.79-2.33a24,24,0,0,0,4,.46c1,0,1.83-.1,1.88-.71s-.47-.76-1.57-.66a4.33,4.33,0,0,1-3.15-.66c-.73-.51-.68-1.82-.36-2.63A3.82,3.82,0,0,1,90.72,14c2-.55,8.18-.3,9.34-.2l-.79,2.94a20.69,20.69,0,0,0-4.82-.26c-1.1.12-1.33.23-1.47.61-.07.19.06.62,1.27.62s3.24,0,3.92,1a3.32,3.32,0,0,1-2.36,4.57A23.8,23.8,0,0,1,86.63,23.08Z"/><path class="d" d="M51.88,1.31l-.42,1.57a9.66,9.66,0,0,1,2.71,1.33l-.52.71a9.3,9.3,0,0,0-2.39-1.31l-.83,3.11H49.7l1.44-5.41Z"/><path class="d" d="M60.31,3.57l-.2.75H54.66l.2-.75Z"/><path class="d" d="M63,3.48a3.62,3.62,0,0,1,1.19.87,5.24,5.24,0,0,0,1.16-1.6H63.22a7,7,0,0,1-2,1.48l-.32-.52a6,6,0,0,0,2.7-2.39l.7.14a6.1,6.1,0,0,1-.5.65h2.62a7.52,7.52,0,0,1-5.54,4.61l-.24-.6a6.65,6.65,0,0,0,2.95-1.25A4.07,4.07,0,0,0,62.41,4Z"/><path class="d" d="M68.49,3.12c-.69,2.57-1.77,3.36-2.15,3.63L66,6.22c.34-.22,1.21-.78,1.79-3l.46-1.71h.71Zm1,2.62c1.5-.33,2.28-2.06,2.42-2.37l.56.27a4.49,4.49,0,0,1-3.89,2.91l1.39-5.18h.69Z"/><path class="d" d="M74.64,4a.87.87,0,0,1-.81.64A.47.47,0,0,1,73.37,4a.89.89,0,0,1,.81-.63A.46.46,0,0,1,74.64,4Z"/><path class="d" d="M75.72,5.71c2.35-.12,3.65-1,5.07-3.33l.59.29c-1.31,2.1-2.75,3.54-5.68,3.77Zm1.8-1.53A6.32,6.32,0,0,0,76,3.48l.48-.62A5.42,5.42,0,0,1,78,3.54Zm.89-1.37a6.45,6.45,0,0,0-1.6-.7l.48-.61a6.06,6.06,0,0,1,1.6.68Z"/><path class="d" d="M80.9,6a9.36,9.36,0,0,0,4.53-3.68h-3.2l.18-.67h4.13a9.33,9.33,0,0,1-1.86,2.54A21.13,21.13,0,0,1,86.27,6l-.73.59a12,12,0,0,0-1.42-1.88,9.18,9.18,0,0,1-3,1.85Z"/><path class="d" d="M92.69,3.17l-.17.64h-2a3.74,3.74,0,0,1-3.3,2.87L87,6.1a2.88,2.88,0,0,0,2.76-2.29H87.39l.17-.64ZM92.61,1.6l-.17.63H88.32l.17-.63Z"/><path class="d" d="M97.1,3.56a9.63,9.63,0,0,1,.79,2.8l-.8.31a5,5,0,0,0-.08-.6c-2.42.22-2.69.25-4.44.33l.11-.73c.14,0,.45,0,.61,0a35.81,35.81,0,0,0,2.43-4.27l.77.1C95.69,3,94.64,4.73,94,5.64c1,0,1.16,0,2.87-.14a6.25,6.25,0,0,0-.5-1.66Z"/><path class="d" d="M100.9,4a.88.88,0,0,1-.81.64A.47.47,0,0,1,99.62,4a.9.9,0,0,1,.81-.63A.47.47,0,0,1,100.9,4Z"/><path class="d" d="M102.08,6c1.34-.32,3.35-.91,4.74-4.31l.75.16c-1.18,2.38-2.37,4-5.27,4.75Zm1.09-2.14a5.94,5.94,0,0,0-.61-1.66l.7-.35A4.72,4.72,0,0,1,104,3.41Z"/><path class="d" d="M108.31,4.9h-.71l.89-3.32h.71Zm3.4-1.1c-.65,2.45-2.19,2.73-4,2.92l0-.68a5.69,5.69,0,0,0,2.13-.43,2.29,2.29,0,0,0,1.15-1.49l.71-2.65h.72Z"/><path class="d" d="M116.4,2.87c-.47,1.41-.7,2.05-1,2.82h1.07l-.16.6H112l.16-.6h2.57c.36-.79.78-2.07.81-2.15h-2.27l.18-.67Z"/><path class="d" d="M123.15,3.57l-.2.75H117.5l.2-.75Z"/><path class="d" d="M123.56,5.71c2.35-.12,3.65-1,5.07-3.33l.59.29c-1.31,2.1-2.75,3.54-5.68,3.77Zm1.8-1.53a6.39,6.39,0,0,0-1.54-.7l.49-.62a5.42,5.42,0,0,1,1.54.68Zm.88-1.37a6.43,6.43,0,0,0-1.59-.7l.48-.61a5.91,5.91,0,0,1,1.59.68Z"/><path class="d" d="M133.23,2.76l-1,3.65H128.8L129,5.8h2.8l.25-1h-2.67l.16-.61h2.68l.23-.87h-2.73l.16-.6Z"/><path class="d" d="M133.37,5.73c2.34-.16,3.91-1.05,5.46-3.65l.61.31c-1.6,2.62-3.24,3.78-6.05,4.11Zm2.47-2.53a4.89,4.89,0,0,0-1.61-.9l.49-.6a5,5,0,0,1,1.68.84Z"/><path class="d" d="M141.47,5.93a2.59,2.59,0,0,0,2.76-2,1.2,1.2,0,0,0-1.17-1.69,10.38,10.38,0,0,1-1.46,3,2.06,2.06,0,0,1-1.41.86c-.81,0-1-.92-.74-1.77a3.7,3.7,0,0,1,3.6-2.72c2,0,2.19,1.39,1.93,2.4a3.48,3.48,0,0,1-3.51,2.58ZM140.1,4.41c-.18.66,0,1,.29,1,.82,0,1.68-2.29,2-3.15A2.9,2.9,0,0,0,140.1,4.41Z"/><path class="e" d="M26.45,1.76c.23-.28.47-.55.74-.82h-9.3c-.17.27-.33.54-.48.82Z"/><path class="e" d="M16.82,3h8.73a8.76,8.76,0,0,1,.58-.82H17.2C17.06,2.42,16.93,2.7,16.82,3Z"/><path class="e" d="M16.37,4.18h8.5c.13-.27.28-.55.44-.82H16.65C16.55,3.63,16.45,3.91,16.37,4.18Z"/><path class="e" d="M16,5.39h8.35c.09-.27.19-.55.3-.82H16.25C16.17,4.84,16.1,5.12,16,5.39Z"/><path class="e" d="M15.84,6.6h8.25a8.09,8.09,0,0,1,.19-.82H16C15.92,6.05,15.87,6.33,15.84,6.6Z"/><path class="e" d="M15.74,7.81H24c0-.27,0-.55.07-.82H15.8C15.77,7.26,15.75,7.54,15.74,7.81Z"/><path class="e" d="M15.74,9H24c0-.27,0-.55,0-.82H15.73C15.73,8.47,15.73,8.75,15.74,9Z"/><path class="e" d="M15.82,10.23H24.1l0-.22c0-.2-.05-.4-.07-.6H15.75C15.77,9.69,15.79,10,15.82,10.23Z"/><path class="e" d="M15.93,11.12a3.11,3.11,0,0,0,0,.32h8.26c0-.27-.05-.54-.09-.82H15.86C15.88,10.79,15.9,11,15.93,11.12Z"/><path class="e" d="M16.08,12.66H24.3c0-.28,0-.55,0-.83H16C16,12.11,16.07,12.39,16.08,12.66Z"/><path class="e" d="M16.09,13.87H24.3c0-.27,0-.55,0-.83H16.09C16.1,13.32,16.1,13.6,16.09,13.87Z"/><path class="e" d="M16,15.08h8.23c0-.27.05-.55.06-.83H16.08C16.06,14.53,16,14.81,16,15.08Z"/><path class="e" d="M15.76,16.29h8.31l.12-.82H15.93A8,8,0,0,1,15.76,16.29Z"/><path class="e" d="M15.38,17.5h8.43c.07-.27.13-.54.19-.82H15.66C15.58,17,15.48,17.23,15.38,17.5Z"/><path class="e" d="M14.81,18.71h8.63c.1-.27.19-.54.27-.82H15.22A9,9,0,0,1,14.81,18.71Z"/><path class="e" d="M14,19.92H23c.12-.27.24-.54.35-.82H14.59C14.41,19.38,14.23,19.65,14,19.92Z"/><path class="e" d="M13,21.13h9.35c.16-.27.31-.54.45-.82h-9C13.48,20.59,13.23,20.86,13,21.13Z"/><path class="e" d="M12.39,21.66a8.26,8.26,0,0,1-.88.68h10c.2-.27.39-.54.57-.82H12.54Z"/><path class="e" d="M8.77,23.51H20.53c.24-.25.46-.51.68-.78H10.87A9.48,9.48,0,0,1,8.77,23.51Z"/><path class="c" d="M38.25.94H27.19c-.13.13-.26.27-.38.41h10.4C37.53,1.2,37.88,1.07,38.25.94Z"/><path class="c" d="M35.76,2.15H26.13l-.31.41h9.37C35.37,2.42,35.56,2.28,35.76,2.15Z"/><path class="c" d="M34.25,3.36H25.31c-.08.14-.16.27-.23.41h8.74C34,3.63,34.1,3.5,34.25,3.36Z"/><path class="c" d="M33.08,4.57H24.69c-.05.14-.11.27-.16.41h8.22Z"/><path class="c" d="M32.22,5.78H24.28c0,.14-.07.27-.1.41H32A3.32,3.32,0,0,1,32.22,5.78Z"/><path class="c" d="M31.68,7H24c0,.14,0,.27,0,.41h7.59A3.48,3.48,0,0,1,31.68,7Z"/><path class="c" d="M31.5,8.2H23.94c0,.14,0,.28,0,.41h7.56C31.5,8.49,31.5,8.35,31.5,8.2Z"/><path class="c" d="M31.62,9.41H24c0,.14,0,.28.05.41h7.62C31.65,9.69,31.63,9.55,31.62,9.41Z"/><path class="c" d="M31.75,10.62H24.14l.06.41h7.59C31.78,10.9,31.77,10.76,31.75,10.62Z"/><path class="c" d="M31.84,11.83H24.26l0,.41h7.56C31.85,12.11,31.85,12,31.84,11.83Z"/><path class="c" d="M31.87,13H24.31c0,.14,0,.28,0,.42h7.55C31.86,13.32,31.87,13.18,31.87,13Z"/><path class="c" d="M31.83,14.25H24.29l0,.41h7.55C31.82,14.53,31.83,14.39,31.83,14.25Z"/><path class="c" d="M31.74,15.47H24.19l-.06.41h7.56C31.71,15.74,31.73,15.6,31.74,15.47Z"/><path class="c" d="M31.57,16.68H24l-.09.41H31.5C31.52,17,31.55,16.81,31.57,16.68Z"/><path class="c" d="M31.33,17.89H23.71c-.05.14-.09.27-.13.41h7.65C31.27,18.16,31.3,18,31.33,17.89Z"/><path class="c" d="M31,19.1H23.3c-.05.14-.11.27-.17.41h7.75C30.92,19.37,31,19.23,31,19.1Z"/><path class="c" d="M30.59,20.31H22.76l-.21.41h7.88C30.48,20.58,30.54,20.45,30.59,20.31Z"/><path class="c" d="M30.08,21.52h-8l-.28.41h8.08Z"/><path class="c" d="M29.46,22.73H21.21l-.35.41h8.36Z"/></svg>